<svg width="892" height="159" viewBox="0 0 892 159" fill="none" xmlns="http://www.w3.org/2000/svg">
<path d="M65.5148 76.3475V70.4434H78.1746V103.168V123.208C78.1746 131.065 76.2192 137.601 72.3335 142.815C68.436 148.019 63.6229 151.901 57.8983 154.45C52.1591 157.009 45.8934 158.283 39.0879 158.283C32.2679 158.283 26.0022 157.009 20.2643 154.45C14.5384 151.901 9.72667 148.019 5.84103 142.815C1.94216 137.601 0 131.065 0 123.208V116.72V110.242V70.4434H12.6479V110.242V116.72V123.208C12.6479 133.041 15.401 140.361 20.9205 145.166C26.4269 149.983 32.4875 152.391 39.0879 152.391C45.6751 152.391 51.7345 149.983 57.2421 145.166C62.7616 140.361 65.5148 133.041 65.5148 123.208V76.3475Z" fill="#7D9764"/>
<path d="M149.364 81.0595C143.858 76.1484 137.797 73.6934 131.21 73.6934C124.61 73.6934 118.549 76.1484 113.043 81.0595C107.523 85.9706 104.77 93.3355 104.77 103.169V109.646V116.135V155.63H92.1221V116.135V109.646V103.169C92.1221 95.312 94.0655 88.7766 97.9631 83.5613C101.849 78.3593 106.66 74.4772 112.386 71.9165C118.124 69.3677 124.391 68.0934 131.21 68.0934C138.016 68.0934 144.283 69.3677 150.02 71.9165C155.746 74.4772 160.558 78.3593 164.457 83.5613C168.343 88.7766 170.298 95.312 170.298 103.169V123.209V155.63H157.637V149.737V103.169C157.637 93.3355 154.884 85.9706 149.364 81.0595Z" fill="#7D9764"/>
<path d="M262.407 123.209V155.63H249.759V149.737V123.209V113.189V103.168C249.759 93.3354 247.006 85.9705 241.487 81.0594C235.967 76.1495 229.92 73.6933 223.319 73.6933C216.719 73.6933 210.672 76.1495 205.152 81.0594C199.646 85.9705 196.879 93.3354 196.879 103.168V123.209C196.879 130.095 198.346 135.789 201.266 140.302C204.188 144.827 207.803 148.066 212.126 150.029C216.449 151.994 221.056 152.788 225.919 152.392C230.782 151.994 235.156 150.321 239.055 147.376V155.63C233.214 157.793 227.102 158.682 220.721 158.284C214.352 157.887 208.446 156.366 203.042 153.713C197.639 151.058 193.162 147.188 189.584 142.079C186.02 136.969 184.231 130.679 184.231 123.209V103.168C184.231 95.3119 186.188 88.7765 190.074 83.5612C193.971 78.3592 198.771 74.4772 204.509 71.9164C210.235 69.3677 216.514 68.0933 223.319 68.0933C230.138 68.0933 236.405 69.3677 242.13 71.9164C247.869 74.4772 252.681 78.3592 256.566 83.5612C260.465 88.7765 262.407 95.3119 262.407 103.168V123.209Z" fill="#7D9764"/>
<path d="M354.53 110.242V113.189V116.134H299.706V110.242H341.882V103.168C341.882 93.3364 339.129 85.9704 333.609 81.0592C328.09 76.1493 322.042 73.6931 315.442 73.6931C308.841 73.6931 302.794 76.1493 297.274 81.0592C291.768 85.9704 289.002 93.3364 289.002 103.168V123.208C289.002 133.041 291.768 140.361 297.274 145.166C302.794 149.983 308.906 152.391 315.61 152.391H319.495C324.693 152.391 329.337 151.117 333.442 148.556L338.64 154.156C332.58 156.905 326.198 158.284 319.495 158.284H315.61C310.63 158.284 305.818 157.548 301.173 156.074C296.516 154.601 292.359 152.391 288.68 149.445C285.001 146.499 282.028 142.863 279.763 138.537C277.486 134.222 276.354 129.102 276.354 123.208V103.168C276.354 95.3117 278.31 88.7764 282.196 83.5611C286.094 78.359 290.893 74.477 296.631 71.9162C302.357 69.3675 308.636 68.0931 315.442 68.0931C322.26 68.0931 328.527 69.3675 334.252 71.9162C339.991 74.477 344.803 78.359 348.689 83.5611C352.586 88.7764 354.53 95.3117 354.53 103.168V110.242Z" fill="#7D9764"/>
<path d="M378.525 90.7869C378.525 96.2944 380.198 100.222 383.555 102.572C386.914 104.934 390.852 107.19 395.394 109.353C398.43 110.932 401.453 112.452 404.477 113.925C407.513 115.398 410.267 117.164 412.75 119.233C415.233 121.291 417.24 123.652 418.758 126.307C420.263 128.96 421.023 132.048 421.023 135.591C421.023 141.295 419.08 145.902 415.182 149.445C411.296 152.976 406.536 155.49 400.913 156.963C395.29 158.435 389.281 158.821 382.912 158.143C376.532 157.442 370.857 155.735 365.877 152.976L370.419 146.194C373.662 148.953 377.444 150.871 381.78 151.947C386.103 153.034 390.259 153.174 394.261 152.392C398.262 151.608 401.671 149.889 404.477 147.235C407.294 144.581 408.696 140.898 408.696 136.175C408.696 133.626 408.26 131.463 407.397 129.697C406.536 127.92 405.287 126.401 403.666 125.126C402.044 123.852 400.205 122.717 398.159 121.735C396.1 120.753 393.991 119.772 391.829 118.789C388.805 117.409 385.769 115.983 382.746 114.509C379.721 113.037 376.956 111.271 374.473 109.214C371.99 107.143 369.931 104.688 368.309 101.835C366.688 98.9946 365.877 95.4985 365.877 91.3712C365.877 85.2915 367.769 80.4285 371.552 76.7797C375.334 73.1562 379.992 70.6423 385.512 69.2621C391.018 67.894 396.911 67.5549 403.19 68.233C409.456 68.9231 415.078 70.6423 420.045 73.3894L415.516 80.1712C412.26 77.4229 408.53 75.5053 404.322 74.4305C400.102 73.3425 396.1 73.2018 392.318 73.9857C388.535 74.7696 385.292 76.5344 382.591 79.2936C379.876 82.0419 378.525 85.8758 378.525 90.7869Z" fill="#7D9764"/>
<path d="M440.811 90.7869C440.811 96.2944 442.483 100.222 445.841 102.572C449.187 104.934 453.137 107.19 457.679 109.353C460.702 110.932 463.725 112.452 466.763 113.925C469.786 115.398 472.539 117.164 475.036 119.233C477.519 121.291 479.513 123.652 481.031 126.307C482.549 128.96 483.308 132.048 483.308 135.591C483.308 141.295 481.353 145.902 477.467 149.445C473.568 152.976 468.808 155.49 463.199 156.963C457.563 158.435 451.567 158.821 445.186 158.143C438.804 157.442 433.13 155.735 428.163 152.976L432.705 146.194C435.948 148.953 439.73 150.871 444.054 151.947C448.376 153.034 452.545 153.174 456.547 152.392C460.547 151.608 463.945 149.889 466.763 147.235C469.568 144.581 470.982 140.898 470.982 136.175C470.982 133.626 470.545 131.463 469.683 129.697C468.808 127.92 467.573 126.401 465.952 125.126C464.33 123.852 462.491 122.717 460.432 121.735C458.374 120.753 456.264 119.772 454.115 118.789C451.079 117.409 448.054 115.983 445.031 114.509C441.995 113.037 439.242 111.271 436.759 109.214C434.262 107.143 432.217 104.688 430.595 101.835C428.974 98.9946 428.163 95.4985 428.163 91.3712C428.163 85.2915 430.055 80.4285 433.837 76.7797C437.62 73.1562 442.265 70.6423 447.784 69.2621C453.304 67.894 459.183 67.5549 465.462 68.233C471.728 68.9231 477.351 70.6423 482.331 73.3894L477.789 80.1712C474.546 77.4229 470.815 75.5053 466.595 74.4305C462.388 73.3425 458.374 73.2018 454.591 73.9857C450.808 74.7696 447.566 76.5344 444.863 79.2936C442.162 82.0419 440.811 85.8758 440.811 90.7869Z" fill="#7D9764"/>
<path d="M573.153 110.242V113.189V116.134H518.33V110.242H560.506V103.168C560.506 93.3364 557.752 85.9704 552.233 81.0592C546.713 76.1493 540.666 73.6931 534.065 73.6931C527.465 73.6931 521.418 76.1493 515.898 81.0592C510.392 85.9704 507.625 93.3364 507.625 103.168V123.208C507.625 133.041 510.392 140.361 515.898 145.166C521.418 149.983 527.53 152.391 534.233 152.391H538.119C543.317 152.391 547.961 151.117 552.066 148.556L557.264 154.156C551.204 156.905 544.821 158.284 538.119 158.284H534.233C529.254 158.284 524.442 157.548 519.797 156.074C515.14 154.601 510.983 152.391 507.304 149.445C503.625 146.499 500.652 142.863 498.387 138.537C496.11 134.222 494.978 129.102 494.978 123.208V103.168C494.978 95.3117 496.934 88.7764 500.82 83.5611C504.717 78.359 509.517 74.477 515.255 71.9162C520.981 69.3675 527.26 68.0931 534.065 68.0931C540.884 68.0931 547.151 69.3675 552.876 71.9162C558.615 74.477 563.427 78.359 567.312 83.5611C571.211 88.7764 573.153 95.3117 573.153 103.168V110.242Z" fill="#7D9764"/>
<path d="M644.998 81.0595C639.479 76.1484 633.432 73.6934 626.831 73.6934C620.231 73.6934 614.183 76.1484 608.664 81.0595C603.157 85.9706 600.391 93.3355 600.391 103.169V109.646V116.135V155.63H587.743V116.135V109.646V103.169C587.743 95.312 589.7 88.7766 593.586 83.5613C597.483 78.3593 602.283 74.4772 608.021 71.9165C613.747 69.3677 620.026 68.0934 626.831 68.0934C633.65 68.0934 639.917 69.3677 645.641 71.9165C651.381 74.4772 656.192 78.3593 660.078 83.5613C663.977 88.7766 665.919 95.312 665.919 103.169V123.209V155.63H653.271V149.737V103.169C653.271 93.3355 650.518 85.9706 644.998 81.0595Z" fill="#7D9764"/>
<path d="M692.514 114.37V132.047C692.514 138.934 694.405 144.043 698.2 147.376C701.984 150.719 706.254 152.391 711.016 152.391C714.901 152.391 718.246 151.409 721.064 149.445L723.662 156.227C719.765 157.595 715.544 158.284 711.016 158.284C707.117 158.284 703.27 157.699 699.5 156.519C695.705 155.338 692.359 153.572 689.439 151.211C686.518 148.848 684.189 145.961 682.465 142.511C680.728 139.074 679.866 134.994 679.866 130.282V114.37V106.115V103.168V70.4435V18.8592H692.514V71.332H716.843V77.2241H692.514V106.115V114.37Z" fill="#7D9764"/>
<path d="M751.222 155.63H738.574V71.3314H751.222V155.63Z" fill="#7D9764"/>
<path d="M847.565 123.209V155.63H834.917V149.737V123.209V113.189V103.168C834.917 93.3354 832.164 85.9705 826.644 81.0594C821.125 76.1495 815.078 73.6933 808.477 73.6933C801.877 73.6933 795.829 76.1495 790.31 81.0594C784.803 85.9705 782.037 93.3354 782.037 103.168V123.209C782.037 130.095 783.504 135.789 786.424 140.302C789.345 144.827 792.961 148.066 797.283 150.029C801.607 151.994 806.213 152.788 811.077 152.392C815.94 151.994 820.314 150.321 824.213 147.376V155.63C818.372 157.793 812.26 158.682 805.879 158.284C799.51 157.887 793.604 156.366 788.2 153.713C782.796 151.058 778.319 147.188 774.742 142.079C771.178 136.969 769.389 130.679 769.389 123.209V103.168C769.389 95.3119 771.346 88.7765 775.232 83.5612C779.129 78.3592 783.929 74.4772 789.667 71.9164C795.393 69.3677 801.672 68.0933 808.477 68.0933C815.296 68.0933 821.563 69.3677 827.287 71.9164C833.027 74.4772 837.838 78.3592 841.724 83.5612C845.622 88.7765 847.565 95.3119 847.565 103.168V123.209Z" fill="#7D9764"/>
<path d="M874.409 -1.43076e-05V131.463C874.409 138.537 876.25 143.845 879.929 147.376C883.596 150.918 887.597 152.496 891.921 152.1V158.284C888.035 158.284 884.304 157.7 880.74 156.519C877.162 155.338 873.971 153.572 871.167 151.211C868.349 148.849 866.085 146.008 864.348 142.664C862.624 139.32 861.761 135.59 861.761 131.463V-1.43076e-05H874.409Z" fill="#7D9764"/>
<path d="M744.636 31.7809C755.533 38.6673 754.704 53.0448 744.833 53.9501C741.062 54.2951 737.695 51.7969 737.316 48.3705C736.535 41.3398 746.901 40.0462 744.636 31.7809Z" fill="#7D9764"/>
</svg>
