<svg width="1034" height="288" viewBox="0 0 1034 288" fill="none" xmlns="http://www.w3.org/2000/svg">
<path d="M166.217 259.6C152.264 261.335 139.219 267.737 129.295 276.721L128.369 275.864C138.649 267.121 152.221 260.758 166.217 259.6Z" fill="#7D9764"/>
<path d="M151.855 263.123C151.855 263.123 142.353 285.677 111.13 287.04C111.13 287.04 121.812 260.962 151.855 263.123Z" stroke="#7D9764" stroke-width="1.63" stroke-miterlimit="10"/>
<path d="M144.94 257.773C133.085 250.63 124.336 239.587 119.642 227.446L120.9 227.074C125.131 239.213 133.446 250.37 144.94 257.773Z" fill="#7D9764"/>
<path d="M133.951 248.626C133.951 248.626 137.048 224.639 110.084 210.272C110.084 210.272 106.234 237.877 133.951 248.626Z" stroke="#7D9764" stroke-width="1.63" stroke-miterlimit="10"/>
<path d="M113.652 247.777C100.065 245.453 85.788 248.01 73.5424 253.626L72.9563 252.547C85.5221 247.233 100.022 245.037 113.652 247.777Z" fill="#7D9764"/>
<path d="M99.578 246.866C99.578 246.866 83.034 265.772 52.8127 258.515C52.8127 258.515 71.6496 236.574 99.578 246.866Z" stroke="#7D9764" stroke-width="1.63" stroke-miterlimit="10"/>
<path d="M93.4691 238.167C84.0388 227.259 78.1515 213.623 77.8247 199.698L79.1477 199.7C79.0366 213.482 84.4781 227.125 93.4691 238.167Z" fill="#7D9764"/>
<path d="M84.4541 223.822C84.4541 223.822 95.3199 201.781 74.3345 180.73C74.3345 180.73 61.557 206.014 84.4541 223.822Z" stroke="#7D9764" stroke-width="1.63" stroke-miterlimit="10"/>
<path d="M58.3815 208.166C48.8003 197.901 35.3984 190.481 20.8335 187.919L21.0941 186.74C35.7291 189.722 49.0424 197.539 58.3815 208.166Z" fill="#7D9764"/>
<path d="M45.6588 197.713C45.6588 197.713 19.6526 202.689 1.46143 179.589C1.46143 179.589 31.3664 173.601 45.6588 197.713Z" stroke="#7D9764" stroke-width="1.63" stroke-miterlimit="10"/>
<path d="M45.6697 189.451C45.5083 176.525 50.6415 163.742 59.0531 153.39L60.0996 154.126C51.4287 164.129 45.9475 176.651 45.6697 189.451Z" fill="#7D9764"/>
<path d="M47.8033 176.043C47.8033 176.043 71.3857 164.905 69.3297 136.561C69.3297 136.561 42.0297 149.165 47.8033 176.043Z" stroke="#7D9764" stroke-width="1.63" stroke-miterlimit="10"/>
<path d="M35.4659 140.769C35.8893 127.315 31.3778 113.657 22.4304 102.904L23.4901 102.185C32.1822 113.292 36.3351 127.194 35.4659 140.769Z" fill="#7D9764"/>
<path d="M33.9766 125.153C33.9766 125.153 10.8043 113.328 13.8644 85.056C13.8644 85.056 40.7027 98.4561 33.9766 125.153Z" stroke="#7D9764" stroke-width="1.63" stroke-miterlimit="10"/>
<path d="M37.5522 125.841C47.4575 114.311 61.1929 104.788 77.1773 101.747L77.4128 102.93C61.5435 105.549 47.6877 114.686 37.5522 125.841Z" fill="#7D9764"/>
<path d="M51.0256 114.058C51.0256 114.058 77.9499 117.777 97.1307 95.3508C97.1307 95.3508 66.3592 90.4829 51.0256 114.058Z" stroke="#7D9764" stroke-width="1.63" stroke-miterlimit="10"/>
<path d="M58.2739 85.5271C65.9685 74.0277 69.4863 60.1311 67.568 46.7646L68.8817 46.6168C70.3846 60.1756 66.4223 74.1227 58.2739 85.5271Z" fill="#7D9764"/>
<path d="M65.4141 71.2836C65.4141 71.2836 51.786 50.5486 69.9176 27.4092C69.9176 27.4092 85.8637 51.1642 65.4141 71.2836Z" stroke="#7D9764" stroke-width="1.63" stroke-miterlimit="10"/>
<path d="M69.115 73.2938C82.98 67.1973 99.147 64.8674 114.26 68.0088L113.934 69.1738C99.0914 65.6849 83.021 67.6205 69.115 73.2938Z" fill="#7D9764"/>
<path d="M84.8564 68.7369C84.8564 68.7369 107.255 82.8187 135.321 70.3179C135.321 70.3179 110.022 53.6717 84.8564 68.7369Z" stroke="#7D9764" stroke-width="1.63" stroke-miterlimit="10"/>
<path d="M104.052 49.3223C116.253 42.6499 126.814 33.0368 133.011 21.315C133.384 20.5107 134.322 18.4441 134.703 17.6193L135.939 18.0509L134.707 20.5432C128.345 32.83 116.934 42.6715 104.052 49.3223Z" fill="#7D9764"/>
<path d="M119.13 38.6359C119.13 38.6359 117.166 14.5491 144.785 1.24396C144.785 1.24396 147.329 28.9723 119.13 38.6359Z" stroke="#7D9764" stroke-width="1.63" stroke-miterlimit="10"/>
<path d="M121.874 41.6131C138.187 41.3125 154.805 46.987 166.011 57.9105L165.026 58.7148C154.28 47.6603 137.997 41.714 121.874 41.6131Z" fill="#7D9764"/>
<path d="M140.354 44.5151C140.354 44.5151 150.945 67.3167 182.01 70.4497C182.01 70.4497 170.487 44.0679 140.354 44.5151Z" stroke="#7D9764" stroke-width="1.63" stroke-miterlimit="10"/>
<path d="M217.06 44.641C189.177 34.2452 157.286 32.4707 128.393 40.3069C101.996 47.9243 78.0502 62.7538 61.2204 82.8011C3.40543 152.719 52.519 234.362 138.483 256.114C147.841 258.317 157.46 259.539 167.137 259.478C171.983 259.596 177.001 259.481 181.636 258.475C174.739 260.319 167.071 259.539 159.878 259.533C110.248 256.244 60.2916 224.632 42.0925 182.173C19.6637 130.496 52.2597 72.7925 104.69 48.5182C138.888 31.5065 181.441 30.8213 217.06 44.641Z" fill="#7D9764"/>
<path d="M205.869 96.2876V90.3834H218.529V123.108V143.148C218.529 151.005 216.573 157.541 212.688 162.756C208.79 167.959 203.977 171.841 198.253 174.39C192.513 176.949 186.248 178.224 179.442 178.224C172.622 178.224 166.356 176.949 160.619 174.39C154.893 171.841 150.081 167.959 146.195 162.756C142.296 157.541 140.354 151.005 140.354 143.148V136.66V130.182V90.3834H153.002V130.182V136.66V143.148C153.002 152.981 155.755 160.301 161.275 165.106C166.781 169.923 172.842 172.331 179.442 172.331C186.029 172.331 192.089 169.923 197.596 165.106C203.116 160.301 205.869 152.981 205.869 143.148V96.2876Z" fill="#7D9764"/>
<path d="M289.718 101C284.212 96.0884 278.151 93.6335 271.564 93.6335C264.964 93.6335 258.903 96.0884 253.397 101C247.877 105.911 245.124 113.276 245.124 123.109V129.586V136.075V175.571H232.476V136.075V129.586V123.109C232.476 115.252 234.42 108.717 238.317 103.501C242.203 98.2993 247.015 94.4173 252.741 91.8566C258.478 89.3078 264.746 88.0335 271.564 88.0335C278.37 88.0335 284.637 89.3078 290.375 91.8566C296.101 94.4173 300.912 98.2993 304.811 103.501C308.697 108.717 310.652 115.252 310.652 123.109V143.149V175.571H297.991V169.677V123.109C297.991 113.276 295.238 105.911 289.718 101Z" fill="#7D9764"/>
<path d="M402.762 143.149V175.57H390.114V169.677V143.149V133.129V123.109C390.114 113.275 387.361 105.911 381.841 100.999C376.321 96.0895 370.274 93.6334 363.674 93.6334C357.073 93.6334 351.026 96.0895 345.506 100.999C340 105.911 337.234 113.275 337.234 123.109V143.149C337.234 150.035 338.701 155.729 341.621 160.242C344.542 164.767 348.158 168.006 352.48 169.969C356.803 171.934 361.41 172.728 366.273 172.332C371.137 171.934 375.51 170.261 379.409 167.316V175.57C373.568 177.733 367.456 178.622 361.075 178.224C354.706 177.827 348.801 176.306 343.396 173.653C337.993 170.998 333.516 167.128 329.939 162.019C326.374 156.909 324.586 150.619 324.586 143.149V123.109C324.586 115.252 326.542 108.717 330.428 103.501C334.326 98.2992 339.125 94.4172 344.863 91.8565C350.589 89.3077 356.868 88.0334 363.674 88.0334C370.492 88.0334 376.759 89.3077 382.484 91.8565C388.223 94.4172 393.035 98.2992 396.921 103.501C400.819 108.717 402.762 115.252 402.762 123.109V143.149Z" fill="#7D9764"/>
<path d="M494.884 130.182V133.129V136.074H440.06V130.182H482.236V123.108C482.236 113.277 479.483 105.91 473.963 100.999C468.444 96.0894 462.396 93.6332 455.796 93.6332C449.196 93.6332 443.148 96.0894 437.629 100.999C432.122 105.91 429.356 113.277 429.356 123.108V143.148C429.356 152.982 432.122 160.301 437.629 165.106C443.148 169.923 449.26 172.331 455.964 172.331H459.85C465.048 172.331 469.691 171.057 473.797 168.496L478.995 174.096C472.934 176.845 466.552 178.224 459.85 178.224H455.964C450.984 178.224 446.172 177.488 441.527 176.014C436.87 174.541 432.714 172.331 429.034 169.385C425.355 166.439 422.382 162.803 420.117 158.477C417.84 154.162 416.708 149.042 416.708 143.148V123.108C416.708 115.252 418.665 108.716 422.55 103.501C426.448 98.2991 431.248 94.4171 436.986 91.8563C442.712 89.3076 448.99 88.0332 455.796 88.0332C462.615 88.0332 468.882 89.3076 474.606 91.8563C480.345 94.4171 485.157 98.2991 489.043 103.501C492.94 108.716 494.884 115.252 494.884 123.108V130.182Z" fill="#7D9764"/>
<path d="M518.88 110.727C518.88 116.234 520.552 120.162 523.91 122.512C527.269 124.874 531.206 127.13 535.748 129.293C538.784 130.872 541.807 132.392 544.831 133.865C547.868 135.338 550.621 137.104 553.104 139.173C555.587 141.231 557.594 143.592 559.112 146.247C560.617 148.9 561.377 151.988 561.377 155.531C561.377 161.235 559.435 165.842 555.536 169.385C551.65 172.916 546.89 175.43 541.267 176.903C535.645 178.376 529.636 178.761 523.267 178.083C516.886 177.382 511.211 175.675 506.232 172.916L510.774 166.134C514.016 168.894 517.799 170.811 522.134 171.887C526.458 172.974 530.613 173.115 534.615 172.332C538.616 171.548 542.025 169.829 544.831 167.176C547.648 164.521 549.05 160.839 549.05 156.115C549.05 153.566 548.614 151.403 547.751 149.637C546.89 147.86 545.641 146.341 544.02 145.066C542.398 143.792 540.559 142.657 538.513 141.675C536.454 140.693 534.345 139.712 532.184 138.729C529.159 137.349 526.123 135.923 523.1 134.449C520.076 132.977 517.31 131.211 514.827 129.154C512.344 127.083 510.285 124.628 508.663 121.776C507.043 118.935 506.232 115.439 506.232 111.311C506.232 105.232 508.124 100.369 511.906 96.7198C515.688 93.0962 520.347 90.5823 525.866 89.2022C531.373 87.834 537.265 87.495 543.544 88.1731C549.81 88.8631 555.433 90.5823 560.399 93.3295L555.871 100.111C552.615 97.3629 548.884 95.4454 544.677 94.3706C540.456 93.2826 536.454 93.1419 532.672 93.9258C528.889 94.7096 525.647 96.4745 522.945 99.2336C520.23 101.982 518.88 105.816 518.88 110.727Z" fill="#7D9764"/>
<path d="M581.165 110.727C581.165 116.234 582.837 120.162 586.195 122.512C589.541 124.874 593.492 127.13 598.033 129.293C601.056 130.872 604.079 132.392 607.117 133.865C610.14 135.338 612.893 137.104 615.39 139.173C617.873 141.231 619.867 143.592 621.386 146.247C622.903 148.9 623.662 151.988 623.662 155.531C623.662 161.235 621.707 165.842 617.821 169.385C613.923 172.916 609.162 175.43 603.553 176.903C597.917 178.376 591.921 178.761 585.54 178.083C579.158 177.382 573.484 175.675 568.517 172.916L573.059 166.134C576.302 168.894 580.084 170.811 584.408 171.887C588.73 172.974 592.899 173.115 596.901 172.332C600.902 171.548 604.299 169.829 607.117 167.176C609.922 164.521 611.336 160.839 611.336 156.115C611.336 153.566 610.9 151.403 610.037 149.637C609.162 147.86 607.927 146.341 606.306 145.066C604.684 143.792 602.845 142.657 600.787 141.675C598.728 140.693 596.618 139.712 594.469 138.729C591.433 137.349 588.409 135.923 585.386 134.449C582.349 132.977 579.596 131.211 577.113 129.154C574.616 127.083 572.571 124.628 570.949 121.776C569.328 118.935 568.517 115.439 568.517 111.311C568.517 105.232 570.409 100.369 574.192 96.7198C577.974 93.0962 582.619 90.5823 588.139 89.2022C593.658 87.834 599.538 87.495 605.817 88.1731C612.082 88.8631 617.705 90.5823 622.685 93.3295L618.143 100.111C614.9 97.3629 611.169 95.4454 606.949 94.3706C602.742 93.2826 598.728 93.1419 594.946 93.9258C591.162 94.7096 587.92 96.4745 585.218 99.2336C582.516 101.982 581.165 105.816 581.165 110.727Z" fill="#7D9764"/>
<path d="M713.508 130.182V133.129V136.074H658.684V130.182H700.86V123.108C700.86 113.277 698.107 105.91 692.587 100.999C687.068 96.0894 681.02 93.6332 674.42 93.6332C667.819 93.6332 661.772 96.0894 656.252 100.999C650.746 105.91 647.98 113.277 647.98 123.108V143.148C647.98 152.982 650.746 160.301 656.252 165.106C661.772 169.923 667.884 172.331 674.588 172.331H678.473C683.671 172.331 688.315 171.057 692.42 168.496L697.618 174.096C691.558 176.845 685.176 178.224 678.473 178.224H674.588C669.608 178.224 664.796 177.488 660.151 176.014C655.494 174.541 651.337 172.331 647.658 169.385C643.979 166.439 641.006 162.803 638.741 158.477C636.464 154.162 635.332 149.042 635.332 143.148V123.108C635.332 115.252 637.288 108.716 641.174 103.501C645.072 98.2991 649.872 94.4171 655.609 91.8563C661.335 89.3076 667.614 88.0332 674.42 88.0332C681.238 88.0332 687.505 89.3076 693.23 91.8563C698.969 94.4171 703.781 98.2991 707.667 103.501C711.566 108.716 713.508 115.252 713.508 123.108V130.182Z" fill="#7D9764"/>
<path d="M785.353 101C779.833 96.0884 773.786 93.6335 767.185 93.6335C760.585 93.6335 754.538 96.0884 749.018 101C743.512 105.911 740.745 113.276 740.745 123.109V129.586V136.075V175.571H728.097V136.075V129.586V123.109C728.097 115.252 730.054 108.717 733.94 103.501C737.837 98.2993 742.637 94.4173 748.375 91.8566C754.101 89.3078 760.38 88.0335 767.185 88.0335C774.004 88.0335 780.271 89.3078 785.996 91.8566C791.735 94.4173 796.547 98.2993 800.432 103.501C804.331 108.717 806.273 115.252 806.273 123.109V143.149V175.571H793.625V169.677V123.109C793.625 113.276 790.872 105.911 785.353 101Z" fill="#7D9764"/>
<path d="M832.868 134.31V151.987C832.868 158.874 834.76 163.983 838.554 167.316C842.338 170.659 846.608 172.331 851.37 172.331C855.256 172.331 858.6 171.349 861.418 169.385L864.016 176.167C860.119 177.535 855.899 178.224 851.37 178.224C847.471 178.224 843.624 177.639 839.855 176.459C836.059 175.278 832.713 173.512 829.793 171.151C826.872 168.788 824.544 165.901 822.82 162.452C821.083 159.014 820.22 154.934 820.22 150.222V134.31V126.055V123.108V90.3836V38.7993H832.868V91.272H857.198V97.1642H832.868V126.055V134.31Z" fill="#7D9764"/>
<path d="M891.576 175.57H878.928V91.2714H891.576V175.57Z" fill="#7D9764"/>
<path d="M987.919 143.149V175.57H975.271V169.677V143.149V133.129V123.109C975.271 113.275 972.518 105.911 966.999 100.999C961.479 96.0895 955.432 93.6334 948.831 93.6334C942.231 93.6334 936.183 96.0895 930.664 100.999C925.158 105.911 922.391 113.275 922.391 123.109V143.149C922.391 150.035 923.858 155.729 926.778 160.242C929.699 164.767 933.315 168.006 937.637 169.969C941.961 171.934 946.568 172.728 951.431 172.332C956.294 171.934 960.668 170.261 964.567 167.316V175.57C958.726 177.733 952.614 178.622 946.233 178.224C939.864 177.827 933.958 176.306 928.554 173.653C923.151 170.998 918.674 167.128 915.096 162.019C911.532 156.909 909.743 150.619 909.743 143.149V123.109C909.743 115.252 911.7 108.717 915.586 103.501C919.483 98.2992 924.283 94.4172 930.021 91.8565C935.747 89.3077 942.026 88.0334 948.831 88.0334C955.65 88.0334 961.917 89.3077 967.642 91.8565C973.381 94.4172 978.193 98.2992 982.078 103.501C985.976 108.717 987.919 115.252 987.919 123.109V143.149Z" fill="#7D9764"/>
<path d="M1014.76 19.94V151.403C1014.76 158.477 1016.6 163.785 1020.28 167.316C1023.95 170.858 1027.95 172.436 1032.27 172.04V178.224C1028.39 178.224 1024.66 177.64 1021.09 176.459C1017.52 175.278 1014.33 173.512 1011.52 171.151C1008.7 168.789 1006.44 165.948 1004.7 162.604C1002.98 159.26 1002.12 155.53 1002.12 151.403V19.94H1014.76Z" fill="#7D9764"/>
<path d="M547.245 220.943V221.22H536.214V229.502H545.578V229.78H536.214V238.338H547.273L547.245 238.616H535.881V220.943H547.245Z" fill="#7D9764"/>
<path d="M547.245 220.943V221.22H536.214V229.502H545.578V229.78H536.214V238.338H547.273L547.245 238.616H535.881V220.943H547.245Z" stroke="#7D9764" stroke-width="1.63" stroke-miterlimit="10"/>
<path d="M564.415 222.559C564.368 222.609 564.318 222.634 564.261 222.634C564.178 222.634 564.052 222.548 563.88 222.376C563.708 222.204 563.457 222.016 563.129 221.814C562.801 221.612 562.377 221.425 561.857 221.252C561.34 221.08 560.692 220.993 559.914 220.993C559.116 220.993 558.411 221.105 557.796 221.329C557.178 221.551 556.663 221.847 556.245 222.218C555.83 222.589 555.512 223.018 555.294 223.505C555.077 223.993 554.968 224.503 554.968 225.034C554.968 225.714 555.114 226.283 555.405 226.738C555.697 227.192 556.08 227.574 556.552 227.887C557.023 228.197 557.566 228.456 558.177 228.662C558.788 228.868 559.408 229.066 560.038 229.255C560.669 229.446 561.29 229.646 561.9 229.855C562.512 230.065 563.053 230.333 563.524 230.657C563.998 230.981 564.38 231.381 564.671 231.855C564.964 232.332 565.108 232.927 565.108 233.642C565.108 234.366 564.974 235.041 564.706 235.668C564.437 236.295 564.05 236.842 563.54 237.31C563.03 237.776 562.405 238.146 561.664 238.414C560.922 238.683 560.081 238.818 559.136 238.818C558.478 238.818 557.89 238.765 557.372 238.66C556.852 238.556 556.377 238.404 555.949 238.206C555.516 238.009 555.122 237.768 554.759 237.486C554.398 237.204 554.052 236.882 553.718 236.52L553.773 236.47C553.802 236.446 553.824 236.425 553.843 236.412C553.861 236.401 553.894 236.394 553.941 236.394C553.996 236.394 554.078 236.447 554.184 236.553C554.29 236.657 554.435 236.792 554.621 236.957C554.806 237.12 555.028 237.296 555.287 237.48C555.548 237.665 555.862 237.84 556.232 238.004C556.602 238.167 557.026 238.303 557.503 238.408C557.98 238.513 558.525 238.565 559.136 238.565C560.033 238.565 560.832 238.435 561.532 238.173C562.232 237.912 562.824 237.561 563.31 237.12C563.796 236.678 564.167 236.162 564.421 235.574C564.675 234.985 564.804 234.357 564.804 233.694C564.804 233.137 564.708 232.657 564.519 232.253C564.329 231.851 564.072 231.502 563.747 231.212C563.424 230.923 563.047 230.674 562.615 230.467C562.184 230.261 561.724 230.076 561.233 229.911C560.742 229.748 560.243 229.596 559.734 229.457C559.223 229.319 558.723 229.165 558.232 228.997C557.741 228.828 557.281 228.637 556.85 228.422C556.42 228.208 556.043 227.947 555.719 227.64C555.394 227.333 555.137 226.966 554.949 226.542C554.757 226.116 554.663 225.613 554.663 225.034C554.663 224.47 554.778 223.929 555.011 223.411C555.24 222.893 555.578 222.436 556.023 222.04C556.467 221.645 557.018 221.331 557.669 221.094C558.324 220.859 559.071 220.741 559.914 220.741C560.858 220.741 561.693 220.88 562.421 221.158C563.147 221.435 563.831 221.878 564.47 222.484L564.415 222.559Z" fill="#7D9764"/>
<path d="M564.415 222.559C564.368 222.609 564.318 222.634 564.261 222.634C564.178 222.634 564.052 222.548 563.88 222.376C563.708 222.204 563.457 222.016 563.129 221.814C562.801 221.612 562.377 221.425 561.857 221.252C561.34 221.08 560.692 220.993 559.914 220.993C559.116 220.993 558.411 221.105 557.796 221.329C557.178 221.551 556.663 221.847 556.245 222.218C555.83 222.589 555.512 223.018 555.294 223.505C555.077 223.993 554.968 224.503 554.968 225.034C554.968 225.714 555.114 226.283 555.405 226.738C555.697 227.192 556.08 227.574 556.552 227.887C557.023 228.197 557.566 228.456 558.177 228.662C558.788 228.868 559.408 229.066 560.038 229.255C560.669 229.446 561.29 229.646 561.9 229.855C562.512 230.065 563.053 230.333 563.524 230.657C563.998 230.981 564.38 231.381 564.671 231.855C564.964 232.332 565.108 232.927 565.108 233.642C565.108 234.366 564.974 235.041 564.706 235.668C564.437 236.295 564.05 236.842 563.54 237.31C563.03 237.776 562.405 238.146 561.664 238.414C560.922 238.683 560.081 238.818 559.136 238.818C558.478 238.818 557.89 238.765 557.372 238.66C556.852 238.556 556.377 238.404 555.949 238.206C555.516 238.009 555.122 237.768 554.759 237.486C554.398 237.204 554.052 236.882 553.718 236.52L553.773 236.47C553.802 236.446 553.824 236.425 553.843 236.412C553.861 236.401 553.894 236.394 553.941 236.394C553.996 236.394 554.078 236.447 554.184 236.553C554.29 236.657 554.435 236.792 554.621 236.957C554.806 237.12 555.028 237.296 555.287 237.48C555.548 237.665 555.862 237.84 556.232 238.004C556.602 238.167 557.026 238.303 557.503 238.408C557.98 238.513 558.525 238.565 559.136 238.565C560.033 238.565 560.832 238.435 561.532 238.173C562.232 237.912 562.824 237.561 563.31 237.12C563.796 236.678 564.167 236.162 564.421 235.574C564.675 234.985 564.804 234.357 564.804 233.694C564.804 233.137 564.708 232.657 564.519 232.253C564.329 231.851 564.072 231.502 563.747 231.212C563.424 230.923 563.047 230.674 562.615 230.467C562.184 230.261 561.724 230.076 561.233 229.911C560.742 229.748 560.243 229.596 559.734 229.457C559.223 229.319 558.723 229.165 558.232 228.997C557.741 228.828 557.281 228.637 556.85 228.422C556.42 228.208 556.043 227.947 555.719 227.64C555.394 227.333 555.137 226.966 554.949 226.542C554.757 226.116 554.663 225.613 554.663 225.034C554.663 224.47 554.778 223.929 555.011 223.411C555.24 222.893 555.578 222.436 556.023 222.04C556.467 221.645 557.018 221.331 557.669 221.094C558.324 220.859 559.071 220.741 559.914 220.741C560.858 220.741 561.693 220.88 562.421 221.158C563.147 221.435 563.831 221.878 564.47 222.484L564.415 222.559Z" stroke="#7D9764" stroke-width="1.63" stroke-miterlimit="10"/>
<path d="M585.001 220.943V221.22H577.696V238.616H577.362V221.22H569.999V220.943H585.001Z" fill="#7D9764"/>
<path d="M585.001 220.943V221.22H577.696V238.616H577.362V221.22H569.999V220.943H585.001Z" stroke="#7D9764" stroke-width="1.63" stroke-miterlimit="10"/>
<path d="M601.005 216.398L596.975 219.126C596.892 219.177 596.808 219.201 596.726 219.201H596.558L599.92 216.575C600.003 216.508 600.083 216.462 600.157 216.437C600.23 216.411 600.346 216.398 600.503 216.398H601.005ZM603.198 220.943V221.22H592.169V229.501H601.531V229.779H592.169V238.338H603.228L603.198 238.615H591.835V220.943H603.198Z" fill="#7D9764"/>
<path d="M601.005 216.398L596.975 219.126C596.892 219.177 596.808 219.201 596.726 219.201H596.558L599.92 216.575C600.003 216.508 600.083 216.462 600.157 216.437C600.23 216.411 600.346 216.398 600.503 216.398H601.005ZM603.198 220.943V221.22H592.169V229.501H601.531V229.779H592.169V238.338H603.228L603.198 238.615H591.835V220.943H603.198Z" stroke="#7D9764" stroke-width="1.63" stroke-miterlimit="10"/>
<path d="M623.674 220.943V221.22H616.367V238.616H616.034V221.22H608.671V220.943H623.674Z" fill="#7D9764"/>
<path d="M623.674 220.943V221.22H616.367V238.616H616.034V221.22H608.671V220.943H623.674Z" stroke="#7D9764" stroke-width="1.63" stroke-miterlimit="10"/>
<path d="M631.398 238.616H631.065V220.943H631.398V238.616Z" fill="#7D9764" stroke="#7D9764" stroke-width="1.63" stroke-miterlimit="10"/>
<path d="M656.069 236.229C656.105 236.229 656.14 236.242 656.166 236.268L656.292 236.369C655.883 236.731 655.446 237.06 654.979 237.359C654.511 237.659 654 237.915 653.445 238.13C652.889 238.345 652.276 238.512 651.61 238.635C650.943 238.758 650.206 238.818 649.4 238.818C648.096 238.818 646.892 238.608 645.788 238.192C644.686 237.776 643.734 237.177 642.927 236.394C642.121 235.611 641.494 234.663 641.047 233.548C640.597 232.433 640.372 231.176 640.372 229.779C640.372 228.434 640.597 227.204 641.047 226.093C641.494 224.982 642.129 224.03 642.948 223.234C643.767 222.438 644.749 221.825 645.894 221.391C647.037 220.957 648.299 220.741 649.679 220.741C650.382 220.741 651.018 220.783 651.58 220.868C652.147 220.951 652.675 221.079 653.165 221.252C653.656 221.425 654.121 221.641 654.561 221.902C655.002 222.163 655.449 222.467 655.901 222.811L655.86 222.875C655.823 222.917 655.782 222.937 655.736 222.937C655.661 222.937 655.561 222.889 655.436 222.792C655.313 222.696 655.145 222.577 654.938 222.432C654.728 222.289 654.471 222.133 654.166 221.966C653.86 221.798 653.495 221.641 653.068 221.498C652.643 221.355 652.149 221.235 651.588 221.138C651.027 221.041 650.392 220.993 649.679 220.993C648.364 220.993 647.158 221.198 646.061 221.605C644.963 222.014 644.018 222.598 643.227 223.36C642.433 224.123 641.817 225.045 641.372 226.132C640.928 227.217 640.705 228.434 640.705 229.779C640.705 231.151 640.925 232.38 641.364 233.465C641.805 234.551 642.413 235.473 643.191 236.229C643.969 236.988 644.889 237.566 645.949 237.965C647.01 238.366 648.159 238.565 649.4 238.565C650.189 238.565 650.891 238.515 651.513 238.414C652.132 238.313 652.7 238.165 653.214 237.971C653.728 237.779 654.205 237.541 654.646 237.258C655.085 236.977 655.522 236.655 655.958 236.293C656.005 236.251 656.042 236.229 656.069 236.229Z" fill="#7D9764"/>
<path d="M656.069 236.229C656.105 236.229 656.14 236.242 656.166 236.268L656.292 236.369C655.883 236.731 655.446 237.06 654.979 237.359C654.511 237.659 654 237.915 653.445 238.13C652.889 238.345 652.276 238.512 651.61 238.635C650.943 238.758 650.206 238.818 649.4 238.818C648.096 238.818 646.892 238.608 645.788 238.192C644.686 237.776 643.734 237.177 642.927 236.394C642.121 235.611 641.494 234.663 641.047 233.548C640.597 232.433 640.372 231.176 640.372 229.779C640.372 228.434 640.597 227.204 641.047 226.093C641.494 224.982 642.129 224.03 642.948 223.234C643.767 222.438 644.749 221.825 645.894 221.391C647.037 220.957 648.299 220.741 649.679 220.741C650.382 220.741 651.018 220.783 651.58 220.868C652.147 220.951 652.675 221.079 653.165 221.252C653.656 221.425 654.121 221.641 654.561 221.902C655.002 222.163 655.449 222.467 655.901 222.811L655.86 222.875C655.823 222.917 655.782 222.937 655.736 222.937C655.661 222.937 655.561 222.889 655.436 222.792C655.313 222.696 655.145 222.577 654.938 222.432C654.728 222.289 654.471 222.133 654.166 221.966C653.86 221.798 653.495 221.641 653.068 221.498C652.643 221.355 652.149 221.235 651.588 221.138C651.027 221.041 650.392 220.993 649.679 220.993C648.364 220.993 647.158 221.198 646.061 221.605C644.963 222.014 644.018 222.598 643.227 223.36C642.433 224.123 641.817 225.045 641.372 226.132C640.928 227.217 640.705 228.434 640.705 229.779C640.705 231.151 640.925 232.38 641.364 233.465C641.805 234.551 642.413 235.473 643.191 236.229C643.969 236.988 644.889 237.566 645.949 237.965C647.01 238.366 648.159 238.565 649.4 238.565C650.189 238.565 650.891 238.515 651.513 238.414C652.132 238.313 652.7 238.165 653.214 237.971C653.728 237.779 654.205 237.541 654.646 237.258C655.085 236.977 655.522 236.655 655.958 236.293C656.005 236.251 656.042 236.229 656.069 236.229Z" stroke="#7D9764" stroke-width="1.63" stroke-miterlimit="10"/>
<path d="M664.668 232.329H674.698L669.905 221.878C669.858 221.784 669.82 221.699 669.787 221.618C669.755 221.538 669.719 221.452 669.682 221.36C669.647 221.452 669.61 221.538 669.579 221.618C669.546 221.699 669.506 221.784 669.46 221.878L664.668 232.329ZM677.934 238.615H677.685C677.6 238.615 677.545 238.573 677.517 238.489L674.809 232.581H664.556L661.848 238.489C661.82 238.573 661.755 238.615 661.654 238.615H661.432L669.543 220.943H669.823L677.934 238.615Z" fill="#7D9764"/>
<path d="M664.668 232.329H674.698L669.905 221.878C669.858 221.784 669.82 221.699 669.787 221.618C669.755 221.538 669.719 221.452 669.682 221.36C669.647 221.452 669.61 221.538 669.579 221.618C669.546 221.699 669.506 221.784 669.46 221.878L664.668 232.329ZM677.934 238.615H677.685C677.6 238.615 677.545 238.573 677.517 238.489L674.809 232.581H664.556L661.848 238.489C661.82 238.573 661.755 238.615 661.654 238.615H661.432L669.543 220.943H669.823L677.934 238.615Z" stroke="#7D9764" stroke-width="1.63" stroke-miterlimit="10"/>
<path d="M704.16 220.943V221.22H693.131V229.502H702.493V229.78H693.131V238.338H704.188L704.16 238.616H692.798V220.943H704.16Z" fill="#7D9764"/>
<path d="M704.16 220.943V221.22H693.131V229.502H702.493V229.78H693.131V238.338H704.188L704.16 238.616H692.798V220.943H704.16Z" stroke="#7D9764" stroke-width="1.63" stroke-miterlimit="10"/>
<path d="M729.638 222.559C729.592 222.609 729.54 222.634 729.485 222.634C729.4 222.634 729.274 222.548 729.104 222.376C728.93 222.204 728.68 222.016 728.351 221.814C728.023 221.612 727.599 221.425 727.081 221.252C726.564 221.08 725.915 220.993 725.137 220.993C724.34 220.993 723.633 221.105 723.018 221.329C722.401 221.551 721.887 221.847 721.469 222.218C721.052 222.589 720.736 223.018 720.516 223.505C720.299 223.993 720.191 224.503 720.191 225.034C720.191 225.714 720.338 226.283 720.627 226.738C720.92 227.192 721.302 227.574 721.776 227.887C722.247 228.197 722.788 228.456 723.4 228.662C724.01 228.868 724.632 229.066 725.26 229.255C725.891 229.446 726.512 229.646 727.123 229.855C727.734 230.065 728.277 230.333 728.748 230.657C729.22 230.981 729.602 231.381 729.894 231.855C730.186 232.332 730.331 232.927 730.331 233.642C730.331 234.366 730.198 235.041 729.929 235.668C729.661 236.295 729.272 236.842 728.762 237.31C728.253 237.776 727.627 238.146 726.886 238.414C726.145 238.683 725.303 238.818 724.359 238.818C723.701 238.818 723.113 238.765 722.595 238.66C722.075 238.556 721.601 238.404 721.171 238.206C720.738 238.009 720.344 237.768 719.982 237.486C719.622 237.204 719.274 236.882 718.94 236.52L718.996 236.47C719.024 236.446 719.046 236.425 719.066 236.412C719.085 236.401 719.116 236.394 719.163 236.394C719.22 236.394 719.3 236.447 719.406 236.553C719.512 236.657 719.659 236.792 719.844 236.957C720.028 237.12 720.25 237.296 720.511 237.48C720.77 237.665 721.085 237.84 721.454 238.004C721.826 238.167 722.249 238.303 722.726 238.408C723.203 238.513 723.747 238.565 724.359 238.565C725.255 238.565 726.056 238.435 726.754 238.173C727.455 237.912 728.047 237.561 728.532 237.12C729.019 236.678 729.391 236.162 729.643 235.574C729.899 234.985 730.026 234.357 730.026 233.694C730.026 233.137 729.931 232.657 729.741 232.253C729.552 231.851 729.294 231.502 728.97 231.212C728.646 230.923 728.269 230.674 727.839 230.467C727.408 230.261 726.947 230.076 726.456 229.911C725.966 229.748 725.465 229.596 724.956 229.457C724.447 229.319 723.945 229.165 723.454 228.997C722.964 228.828 722.503 228.637 722.073 228.422C721.643 228.208 721.266 227.947 720.941 227.64C720.618 227.333 720.359 226.966 720.171 226.542C719.98 226.116 719.886 225.613 719.886 225.034C719.886 224.47 720.001 223.929 720.233 223.411C720.463 222.893 720.802 222.436 721.246 222.04C721.691 221.645 722.24 221.331 722.892 221.094C723.546 220.859 724.295 220.741 725.137 220.741C726.082 220.741 726.917 220.88 727.643 221.158C728.371 221.435 729.055 221.878 729.692 222.484L729.638 222.559Z" fill="#7D9764"/>
<path d="M729.638 222.559C729.592 222.609 729.54 222.634 729.485 222.634C729.4 222.634 729.274 222.548 729.104 222.376C728.93 222.204 728.68 222.016 728.351 221.814C728.023 221.612 727.599 221.425 727.081 221.252C726.564 221.08 725.915 220.993 725.137 220.993C724.34 220.993 723.633 221.105 723.018 221.329C722.401 221.551 721.887 221.847 721.469 222.218C721.052 222.589 720.736 223.018 720.516 223.505C720.299 223.993 720.191 224.503 720.191 225.034C720.191 225.714 720.338 226.283 720.627 226.738C720.92 227.192 721.302 227.574 721.776 227.887C722.247 228.197 722.788 228.456 723.4 228.662C724.01 228.868 724.632 229.066 725.26 229.255C725.891 229.446 726.512 229.646 727.123 229.855C727.734 230.065 728.277 230.333 728.748 230.657C729.22 230.981 729.602 231.381 729.894 231.855C730.186 232.332 730.331 232.927 730.331 233.642C730.331 234.366 730.198 235.041 729.929 235.668C729.661 236.295 729.272 236.842 728.762 237.31C728.253 237.776 727.627 238.146 726.886 238.414C726.145 238.683 725.303 238.818 724.359 238.818C723.701 238.818 723.113 238.765 722.595 238.66C722.075 238.556 721.601 238.404 721.171 238.206C720.738 238.009 720.344 237.768 719.982 237.486C719.622 237.204 719.274 236.882 718.94 236.52L718.996 236.47C719.024 236.446 719.046 236.425 719.066 236.412C719.085 236.401 719.116 236.394 719.163 236.394C719.22 236.394 719.3 236.447 719.406 236.553C719.512 236.657 719.659 236.792 719.844 236.957C720.028 237.12 720.25 237.296 720.511 237.48C720.77 237.665 721.085 237.84 721.454 238.004C721.826 238.167 722.249 238.303 722.726 238.408C723.203 238.513 723.747 238.565 724.359 238.565C725.255 238.565 726.056 238.435 726.754 238.173C727.455 237.912 728.047 237.561 728.532 237.12C729.019 236.678 729.391 236.162 729.643 235.574C729.899 234.985 730.026 234.357 730.026 233.694C730.026 233.137 729.931 232.657 729.741 232.253C729.552 231.851 729.294 231.502 728.97 231.212C728.646 230.923 728.269 230.674 727.839 230.467C727.408 230.261 726.947 230.076 726.456 229.911C725.966 229.748 725.465 229.596 724.956 229.457C724.447 229.319 723.945 229.165 723.454 228.997C722.964 228.828 722.503 228.637 722.073 228.422C721.643 228.208 721.266 227.947 720.941 227.64C720.618 227.333 720.359 226.966 720.171 226.542C719.98 226.116 719.886 225.613 719.886 225.034C719.886 224.47 720.001 223.929 720.233 223.411C720.463 222.893 720.802 222.436 721.246 222.04C721.691 221.645 722.24 221.331 722.892 221.094C723.546 220.859 724.295 220.741 725.137 220.741C726.082 220.741 726.917 220.88 727.643 221.158C728.371 221.435 729.055 221.878 729.692 222.484L729.638 222.559Z" stroke="#7D9764" stroke-width="1.63" stroke-miterlimit="10"/>
<path d="M738.181 232.329H748.209L743.418 221.878C743.372 221.784 743.332 221.699 743.299 221.618C743.266 221.538 743.232 221.452 743.195 221.36C743.158 221.452 743.123 221.538 743.09 221.618C743.06 221.699 743.019 221.784 742.973 221.878L738.181 232.329ZM751.446 238.615H751.196C751.113 238.615 751.057 238.573 751.031 238.489L748.32 232.581H738.07L735.36 238.489C735.334 238.573 735.269 238.615 735.166 238.615H734.943L743.057 220.943H743.334L751.446 238.615Z" fill="#7D9764"/>
<path d="M738.181 232.329H748.209L743.418 221.878C743.372 221.784 743.332 221.699 743.299 221.618C743.266 221.538 743.232 221.452 743.195 221.36C743.158 221.452 743.123 221.538 743.09 221.618C743.06 221.699 743.019 221.784 742.973 221.878L738.181 232.329ZM751.446 238.615H751.196C751.113 238.615 751.057 238.573 751.031 238.489L748.32 232.581H738.07L735.36 238.489C735.334 238.573 735.269 238.615 735.166 238.615H734.943L743.057 220.943H743.334L751.446 238.615Z" stroke="#7D9764" stroke-width="1.63" stroke-miterlimit="10"/>
<path d="M767.449 216.398L763.421 219.126C763.339 219.177 763.254 219.201 763.171 219.201H763.005L766.367 216.575C766.449 216.508 766.527 216.462 766.601 216.437C766.677 216.411 766.792 216.398 766.949 216.398H767.449ZM764.059 238.565C765.106 238.565 766.044 238.394 766.873 238.054C767.701 237.713 768.403 237.249 768.976 236.66C769.552 236.069 769.992 235.38 770.296 234.589C770.602 233.798 770.756 232.953 770.756 232.053V220.943H771.089V232.053C771.089 232.985 770.928 233.864 770.602 234.69C770.279 235.515 769.811 236.234 769.198 236.849C768.588 237.463 767.85 237.95 766.984 238.307C766.118 238.665 765.143 238.843 764.059 238.843C762.976 238.843 762.003 238.665 761.136 238.307C760.269 237.95 759.533 237.463 758.92 236.849C758.309 236.234 757.84 235.515 757.516 234.69C757.193 233.864 757.031 232.985 757.031 232.053V220.943H757.364V232.026C757.364 232.927 757.516 233.774 757.823 234.57C758.129 235.365 758.568 236.06 759.142 236.654C759.715 237.246 760.419 237.713 761.247 238.054C762.075 238.394 763.012 238.565 764.059 238.565Z" fill="#7D9764"/>
<path d="M767.449 216.398L763.421 219.126C763.339 219.177 763.254 219.201 763.171 219.201H763.005L766.367 216.575C766.449 216.508 766.527 216.462 766.601 216.437C766.677 216.411 766.792 216.398 766.949 216.398H767.449ZM764.059 238.565C765.106 238.565 766.044 238.394 766.873 238.054C767.701 237.713 768.403 237.249 768.976 236.66C769.552 236.069 769.992 235.38 770.296 234.589C770.602 233.798 770.756 232.953 770.756 232.053V220.943H771.089V232.053C771.089 232.985 770.928 233.864 770.602 234.69C770.279 235.515 769.811 236.234 769.198 236.849C768.588 237.463 767.85 237.95 766.984 238.307C766.118 238.665 765.143 238.843 764.059 238.843C762.976 238.843 762.003 238.665 761.136 238.307C760.269 237.95 759.533 237.463 758.92 236.849C758.309 236.234 757.84 235.515 757.516 234.69C757.193 233.864 757.031 232.985 757.031 232.053V220.943H757.364V232.026C757.364 232.927 757.516 233.774 757.823 234.57C758.129 235.365 758.568 236.06 759.142 236.654C759.715 237.246 760.419 237.713 761.247 238.054C762.075 238.394 763.012 238.565 764.059 238.565Z" stroke="#7D9764" stroke-width="1.63" stroke-miterlimit="10"/>
<path d="M796.15 229.779C796.15 228.407 795.938 227.189 795.516 226.125C795.095 225.06 794.507 224.162 793.747 223.43C792.986 222.697 792.078 222.142 791.016 221.764C789.955 221.385 788.787 221.195 787.509 221.195H780.897V238.364H787.509C788.787 238.364 789.955 238.173 791.016 237.796C792.078 237.417 792.986 236.861 793.747 236.128C794.507 235.397 795.095 234.499 795.516 233.434C795.938 232.369 796.15 231.152 796.15 229.779ZM796.511 229.779C796.511 231.176 796.29 232.422 795.849 233.516C795.41 234.611 794.796 235.535 794.002 236.293C793.211 237.051 792.263 237.626 791.162 238.023C790.059 238.418 788.843 238.617 787.509 238.617H780.563V220.943H787.509C788.843 220.943 790.059 221.14 791.162 221.537C792.263 221.932 793.211 222.508 794.002 223.265C794.796 224.024 795.41 224.948 795.849 226.044C796.29 227.138 796.511 228.382 796.511 229.779Z" fill="#7D9764"/>
<path d="M796.15 229.779C796.15 228.407 795.938 227.189 795.516 226.125C795.095 225.06 794.507 224.162 793.747 223.43C792.986 222.697 792.078 222.142 791.016 221.764C789.955 221.385 788.787 221.195 787.509 221.195H780.897V238.364H787.509C788.787 238.364 789.955 238.173 791.016 237.796C792.078 237.417 792.986 236.861 793.747 236.128C794.507 235.397 795.095 234.499 795.516 233.434C795.938 232.369 796.15 231.152 796.15 229.779ZM796.511 229.779C796.511 231.176 796.29 232.422 795.849 233.516C795.41 234.611 794.796 235.535 794.002 236.293C793.211 237.051 792.263 237.626 791.162 238.023C790.059 238.418 788.843 238.617 787.509 238.617H780.563V220.943H787.509C788.843 220.943 790.059 221.14 791.162 221.537C792.263 221.932 793.211 222.508 794.002 223.265C794.796 224.024 795.41 224.948 795.849 226.044C796.29 227.138 796.511 228.382 796.511 229.779Z" stroke="#7D9764" stroke-width="1.63" stroke-miterlimit="10"/>
<path d="M816.152 220.943V221.22H805.122V229.502H814.485V229.78H805.122V238.338H816.18L816.152 238.616H804.789V220.943H816.152Z" fill="#7D9764"/>
<path d="M816.152 220.943V221.22H805.122V229.502H814.485V229.78H805.122V238.338H816.18L816.152 238.616H804.789V220.943H816.152Z" stroke="#7D9764" stroke-width="1.63" stroke-miterlimit="10"/>
<path d="M833.6 238.616H833.266V220.943H833.6V238.616Z" fill="#7D9764" stroke="#7D9764" stroke-width="1.63" stroke-miterlimit="10"/>
<path d="M844.075 221.044L857.841 238.073C857.831 238.032 857.827 237.987 857.827 237.942V237.807V220.943H858.104V238.616H858.02C857.966 238.616 857.915 238.587 857.868 238.528L844.034 221.422C844.042 221.473 844.047 221.525 844.047 221.58V221.725V238.616H843.769V220.943H843.88C843.964 220.943 844.028 220.977 844.075 221.044Z" fill="#7D9764"/>
<path d="M844.075 221.044L857.841 238.073C857.831 238.032 857.827 237.987 857.827 237.942V237.807V220.943H858.104V238.616H858.02C857.966 238.616 857.915 238.587 857.868 238.528L844.034 221.422C844.042 221.473 844.047 221.525 844.047 221.58V221.725V238.616H843.769V220.943H843.88C843.964 220.943 844.028 220.977 844.075 221.044Z" stroke="#7D9764" stroke-width="1.63" stroke-miterlimit="10"/>
<path d="M879.94 220.943V221.22H872.635V238.616H872.301V221.22H864.938V220.943H879.94Z" fill="#7D9764"/>
<path d="M879.94 220.943V221.22H872.635V238.616H872.301V221.22H864.938V220.943H879.94Z" stroke="#7D9764" stroke-width="1.63" stroke-miterlimit="10"/>
<path d="M898.139 220.943V221.22H887.108V229.502H896.472V229.78H887.108V238.338H898.167L898.139 238.616H886.775V220.943H898.139Z" fill="#7D9764"/>
<path d="M898.139 220.943V221.22H887.108V229.502H896.472V229.78H887.108V238.338H898.167L898.139 238.616H886.775V220.943H898.139Z" stroke="#7D9764" stroke-width="1.63" stroke-miterlimit="10"/>
<path d="M914.475 238.566C915.272 238.566 915.991 238.526 916.636 238.445C917.279 238.366 917.878 238.247 918.434 238.091C918.989 237.937 919.516 237.747 920.011 237.525C920.507 237.301 921.004 237.046 921.503 236.76V231.269H917.142C917.031 231.269 916.976 231.227 916.976 231.143V231.017H921.809V236.874C921.328 237.169 920.83 237.437 920.316 237.676C919.802 237.915 919.25 238.12 918.664 238.288C918.075 238.456 917.436 238.587 916.747 238.679C916.056 238.771 915.3 238.818 914.475 238.818C913.076 238.818 911.808 238.609 910.669 238.192C909.53 237.777 908.555 237.177 907.744 236.393C906.934 235.612 906.307 234.663 905.863 233.548C905.418 232.432 905.196 231.177 905.196 229.779C905.196 228.391 905.418 227.14 905.863 226.024C906.307 224.909 906.946 223.961 907.778 223.177C908.612 222.394 909.62 221.793 910.801 221.372C911.981 220.952 913.307 220.741 914.78 220.741C915.503 220.741 916.165 220.781 916.767 220.86C917.37 220.941 917.927 221.065 918.442 221.233C918.955 221.403 919.439 221.612 919.893 221.864C920.345 222.117 920.79 222.42 921.227 222.773L921.184 222.837C921.147 222.879 921.106 222.899 921.06 222.899C920.984 222.899 920.828 222.801 920.586 222.604C920.345 222.406 919.983 222.186 919.496 221.947C919.011 221.707 918.382 221.488 917.615 221.291C916.845 221.092 915.901 220.994 914.78 220.994C913.372 220.994 912.099 221.193 910.961 221.594C909.821 221.993 908.849 222.571 908.044 223.329C907.237 224.086 906.618 225.008 906.18 226.094C905.746 227.179 905.529 228.408 905.529 229.779C905.529 231.151 905.744 232.379 906.176 233.466C906.605 234.55 907.215 235.473 908.001 236.23C908.788 236.988 909.731 237.567 910.828 237.966C911.925 238.366 913.142 238.566 914.475 238.566Z" fill="#7D9764"/>
<path d="M914.475 238.566C915.272 238.566 915.991 238.526 916.636 238.445C917.279 238.366 917.878 238.247 918.434 238.091C918.989 237.937 919.516 237.747 920.011 237.525C920.507 237.301 921.004 237.046 921.503 236.76V231.269H917.142C917.031 231.269 916.976 231.227 916.976 231.143V231.017H921.809V236.874C921.328 237.169 920.83 237.437 920.316 237.676C919.802 237.915 919.25 238.12 918.664 238.288C918.075 238.456 917.436 238.587 916.747 238.679C916.056 238.771 915.3 238.818 914.475 238.818C913.076 238.818 911.808 238.609 910.669 238.192C909.53 237.777 908.555 237.177 907.744 236.393C906.934 235.612 906.307 234.663 905.863 233.548C905.418 232.432 905.196 231.177 905.196 229.779C905.196 228.391 905.418 227.14 905.863 226.024C906.307 224.909 906.946 223.961 907.778 223.177C908.612 222.394 909.62 221.793 910.801 221.372C911.981 220.952 913.307 220.741 914.78 220.741C915.503 220.741 916.165 220.781 916.767 220.86C917.37 220.941 917.927 221.065 918.442 221.233C918.955 221.403 919.439 221.612 919.893 221.864C920.345 222.117 920.79 222.42 921.227 222.773L921.184 222.837C921.147 222.879 921.106 222.899 921.06 222.899C920.984 222.899 920.828 222.801 920.586 222.604C920.345 222.406 919.983 222.186 919.496 221.947C919.011 221.707 918.382 221.488 917.615 221.291C916.845 221.092 915.901 220.994 914.78 220.994C913.372 220.994 912.099 221.193 910.961 221.594C909.821 221.993 908.849 222.571 908.044 223.329C907.237 224.086 906.618 225.008 906.18 226.094C905.746 227.179 905.529 228.408 905.529 229.779C905.529 231.151 905.744 232.379 906.176 233.466C906.605 234.55 907.215 235.473 908.001 236.23C908.788 236.988 909.731 237.567 910.828 237.966C911.925 238.366 913.142 238.566 914.475 238.566Z" stroke="#7D9764" stroke-width="1.63" stroke-miterlimit="10"/>
<path d="M931.367 229.829H935.284C936.238 229.829 937.098 229.727 937.86 229.52C938.625 229.314 939.278 229.02 939.819 228.637C940.362 228.253 940.777 227.788 941.069 227.236C941.362 226.684 941.507 226.059 941.507 225.361C941.507 223.923 940.993 222.868 939.966 222.199C938.938 221.53 937.459 221.195 935.534 221.195H931.367V229.829ZM931.367 230.082V238.616H931.033V220.942H935.534C937.564 220.942 939.121 221.301 940.21 222.016C941.297 222.731 941.841 223.846 941.841 225.361C941.841 226.076 941.689 226.723 941.382 227.3C941.077 227.876 940.646 228.365 940.09 228.769C939.535 229.173 938.871 229.489 938.098 229.715C937.324 229.944 936.469 230.065 935.534 230.082C935.628 230.115 935.71 230.16 935.784 230.214C935.858 230.269 935.932 230.335 936.008 230.41L943.591 238.616H943.369C943.295 238.616 943.235 238.609 943.189 238.596C943.141 238.584 943.082 238.54 943.008 238.465L935.729 230.537C935.645 230.445 935.564 230.368 935.485 230.309C935.407 230.251 935.318 230.204 935.222 230.171C935.124 230.137 935.01 230.113 934.88 230.101C934.752 230.089 934.589 230.082 934.395 230.082H931.367Z" fill="#7D9764"/>
<path d="M931.367 229.829H935.284C936.238 229.829 937.098 229.727 937.86 229.52C938.625 229.314 939.278 229.02 939.819 228.637C940.362 228.253 940.777 227.788 941.069 227.236C941.362 226.684 941.507 226.059 941.507 225.361C941.507 223.923 940.993 222.868 939.966 222.199C938.938 221.53 937.459 221.195 935.534 221.195H931.367V229.829ZM931.367 230.082V238.616H931.033V220.942H935.534C937.564 220.942 939.121 221.301 940.21 222.016C941.297 222.731 941.841 223.846 941.841 225.361C941.841 226.076 941.689 226.723 941.382 227.3C941.077 227.876 940.646 228.365 940.09 228.769C939.535 229.173 938.871 229.489 938.098 229.715C937.324 229.944 936.469 230.065 935.534 230.082C935.628 230.115 935.71 230.16 935.784 230.214C935.858 230.269 935.932 230.335 936.008 230.41L943.591 238.616H943.369C943.295 238.616 943.235 238.609 943.189 238.596C943.141 238.584 943.082 238.54 943.008 238.465L935.729 230.537C935.645 230.445 935.564 230.368 935.485 230.309C935.407 230.251 935.318 230.204 935.222 230.171C935.124 230.137 935.01 230.113 934.88 230.101C934.752 230.089 934.589 230.082 934.395 230.082H931.367Z" stroke="#7D9764" stroke-width="1.63" stroke-miterlimit="10"/>
<path d="M950.829 232.329H960.857L956.066 221.878C956.019 221.784 955.98 221.699 955.948 221.618C955.915 221.538 955.88 221.452 955.842 221.36C955.806 221.452 955.771 221.538 955.739 221.618C955.707 221.699 955.666 221.784 955.62 221.878L950.829 232.329ZM964.095 238.615H963.845C963.761 238.615 963.705 238.573 963.678 238.489L960.969 232.581H950.717L948.007 238.489C947.981 238.573 947.916 238.615 947.814 238.615H947.592L955.704 220.943H955.982L964.095 238.615Z" fill="#7D9764"/>
<path d="M950.829 232.329H960.857L956.066 221.878C956.019 221.784 955.98 221.699 955.948 221.618C955.915 221.538 955.88 221.452 955.842 221.36C955.806 221.452 955.771 221.538 955.739 221.618C955.707 221.699 955.666 221.784 955.62 221.878L950.829 232.329ZM964.095 238.615H963.845C963.761 238.615 963.705 238.573 963.678 238.489L960.969 232.581H950.717L948.007 238.489C947.981 238.573 947.916 238.615 947.814 238.615H947.592L955.704 220.943H955.982L964.095 238.615Z" stroke="#7D9764" stroke-width="1.63" stroke-miterlimit="10"/>
<path d="M981.487 220.943V221.22H974.181V238.616H973.848V221.22H966.484V220.943H981.487Z" fill="#7D9764"/>
<path d="M981.487 220.943V221.22H974.181V238.616H973.848V221.22H966.484V220.943H981.487Z" stroke="#7D9764" stroke-width="1.63" stroke-miterlimit="10"/>
<path d="M989.211 238.616H988.877V220.943H989.211V238.616Z" fill="#7D9764" stroke="#7D9764" stroke-width="1.63" stroke-miterlimit="10"/>
<path d="M996.323 220.943H996.573C996.656 220.943 996.712 220.985 996.738 221.069L1004.35 237.682C1004.4 237.774 1004.44 237.865 1004.48 237.952C1004.51 238.043 1004.55 238.124 1004.57 238.2C1004.6 238.124 1004.64 238.043 1004.67 237.952C1004.71 237.865 1004.75 237.774 1004.8 237.682L1012.41 221.069C1012.44 220.985 1012.5 220.943 1012.6 220.943H1012.83L1004.71 238.616H1004.44L996.323 220.943Z" fill="#7D9764"/>
<path d="M996.323 220.943H996.573C996.656 220.943 996.712 220.985 996.738 221.069L1004.35 237.682C1004.4 237.774 1004.44 237.865 1004.48 237.952C1004.51 238.043 1004.55 238.124 1004.57 238.2C1004.6 238.124 1004.64 238.043 1004.67 237.952C1004.71 237.865 1004.75 237.774 1004.8 237.682L1012.41 221.069C1012.44 220.985 1012.5 220.943 1012.6 220.943H1012.83L1004.71 238.616H1004.44L996.323 220.943Z" stroke="#7D9764" stroke-width="1.63" stroke-miterlimit="10"/>
<path d="M1018.73 232.329H1028.76L1023.97 221.878C1023.92 221.784 1023.88 221.699 1023.85 221.618C1023.82 221.538 1023.78 221.452 1023.74 221.36C1023.71 221.452 1023.67 221.538 1023.64 221.618C1023.61 221.699 1023.57 221.784 1023.52 221.878L1018.73 232.329ZM1032 238.615H1031.75C1031.66 238.615 1031.61 238.573 1031.58 238.489L1028.87 232.581H1018.62L1015.91 238.489C1015.88 238.573 1015.82 238.615 1015.72 238.615H1015.49L1023.6 220.943H1023.88L1032 238.615Z" fill="#7D9764"/>
<path d="M1018.73 232.329H1028.76L1023.97 221.878C1023.92 221.784 1023.88 221.699 1023.85 221.618C1023.82 221.538 1023.78 221.452 1023.74 221.36C1023.71 221.452 1023.67 221.538 1023.64 221.618C1023.61 221.699 1023.57 221.784 1023.52 221.878L1018.73 232.329ZM1032 238.615H1031.75C1031.66 238.615 1031.61 238.573 1031.58 238.489L1028.87 232.581H1018.62L1015.91 238.489C1015.88 238.573 1015.82 238.615 1015.72 238.615H1015.49L1023.6 220.943H1023.88L1032 238.615Z" stroke="#7D9764" stroke-width="1.63" stroke-miterlimit="10"/>
<path d="M884.99 51.7209C895.888 58.6073 895.058 72.9849 885.187 73.8902C881.417 74.2352 878.05 71.7369 877.67 68.3106C876.889 61.2799 887.255 59.9863 884.99 51.7209Z" fill="#7D9764"/>
<path d="M180.068 220.2C180.879 222.502 179.927 225.234 177.713 226.625C172.944 229.58 166.29 225.933 165.931 220.931C165.068 215.993 169.335 211.063 174.855 210.773C180.259 210.208 185.623 213.376 187.554 217.952C192.922 231.777 177.14 241.912 163.622 235.206C148.388 227.798 150.244 206.004 164.772 198.779C174.178 193.876 186.524 195.059 195.167 200.786C213.513 212.474 211.693 238.764 195.624 251.444C191.736 254.608 186.94 257.143 181.969 258.406C191.967 255.669 200.579 248.688 204.517 239.834C214.217 219.177 199.081 193.281 172.534 197.359C153.105 200.277 146.658 225.3 164.033 234.52C173.411 239.383 186.319 235.363 187.83 225.027C188.58 220.448 186.687 215.342 182.227 212.835C178.002 210.267 171.528 210.539 168.27 214.32C165.003 217.919 165.535 224.219 170.251 226.584C175.242 229.253 181.632 225.566 179.941 220.235C179.915 220.16 180.044 220.124 180.068 220.2Z" fill="#7D9764"/>
</svg>
